<?xml version="1.0" encoding="utf-8"?>
<!-- Generator: Adobe Illustrator 27.9.0, SVG Export Plug-In . SVG Version: 6.00 Build 0)  -->
<svg version="1.1" id="Layer_1" xmlns="http://www.w3.org/2000/svg" xmlns:xlink="http://www.w3.org/1999/xlink" x="0px" y="0px"
	 viewBox="0 0 560 460" style="enable-background:new 0 0 560 460;" xml:space="preserve">
<style type="text/css">
	.st0{font-family:'HelveticaNeue-Bold';}
	.st1{font-size:11px;}
	.st2{fill:none;stroke:#262626;stroke-width:0.5;stroke-linejoin:round;stroke-miterlimit:10;}
	.st3{fill:#0072BD;}
	.st4{fill:none;stroke:#000000;stroke-width:0.5;stroke-miterlimit:10;}
	.st5{fill:#D95319;}
	.st6{fill:none;stroke:#E71E25;stroke-width:0.5;stroke-miterlimit:10;}
	.st7{fill:none;stroke:#231F20;stroke-width:2;stroke-linejoin:round;stroke-miterlimit:10;}
	.st8{fill:none;stroke:#E71E25;stroke-width:2;stroke-linejoin:round;stroke-miterlimit:10;}
	.st9{font-family:'Helvetica';}
	.st10{font-size:20px;}
	.st11{stroke:#ED1C24;stroke-miterlimit:10;}
	.st12{fill:none;stroke:#262626;stroke-width:0.5;stroke-linecap:square;stroke-linejoin:round;stroke-miterlimit:10;}
	.st13{fill:#262626;}
	.st14{font-size:10px;}
	.st15{fill:#FFFFFF;}
	.st16{font-size:9px;}
	.st17{fill:none;stroke:#262626;stroke-width:0.5;stroke-miterlimit:10;}
</style>
<g>
	<g transform="translate(290,25.0312)">
		<text transform="matrix(1 0 0 1 -247.9727 6.9463)" class="st0 st1">Spike Accuracy Comparison between Network 1 and Network 2 for Hand and Wrist Kinematics</text>
	</g>
	<g>
		<line class="st2" x1="73.3" y1="432.1" x2="507.3" y2="432.1"/>
	</g>
	<g>
		<path class="st3" d="M383.8,432.1V165.8h-31.9v266.2H383.8z"/>
	</g>
	<g>
		<path class="st4" d="M132.7,432.1L132.7,432.1h31.9l0,0H132.7z"/>
		<path class="st4" d="M351.9,432.1V165.8h31.9v266.2H351.9z"/>
		<path class="st4" d="M136.8,432.1v-4.7h31.9v4.7H136.8z"/>
		<path class="st4" d="M190.2,432.1v-4.7h31.9v4.7H190.2z"/>
	</g>
	<g>
		<path class="st5" d="M440.2,432.1v-9.4h-31.9v9.4H440.2z"/>
	</g>
	<g>
		<path class="st6" d="M175.7,432.1L175.7,432.1h33.6l0,0H175.7z"/>
		<path class="st6" d="M408.3,432.1V423h32.2v9.1H408.3z"/>
		<path class="st6" d="M217.8,432.1L217.8,432.1h33.6l0,0H217.8z"/>
		<path class="st6" d="M449,432.1L449,432.1h33.6l0,0H449z"/>
		<path class="st6" d="M259.8,432.1L259.8,432.1h33.6l0,0H259.8z"/>
		<path class="st6" d="M491,432.1L491,432.1h33.6l0,0H491z"/>
		<line class="st7" x1="152.8" y1="156.4" x2="250.4" y2="156.4"/>
		<line class="st8" x1="396.1" y1="417.6" x2="484.3" y2="417.6"/>
	</g>
	<g transform="translate(180.404,115.125)">
		<text transform="matrix(1 0 0 1 17.3265 41.3232)" class="st9 st10">*</text>
	</g>
	<g transform="translate(399.5959,381.375)">
		<text transform="matrix(1 0 0 1 35.168 30.0732)" class="st11 st9 st10">*</text>
	</g>
	<g>
		<line class="st12" x1="73.3" y1="432.1" x2="507.3" y2="432.1"/>
		<line class="st12" x1="73.3" y1="57.1" x2="507.3" y2="57.1"/>
		<line class="st12" x1="180.7" y1="432.1" x2="180.7" y2="427.7"/>
		<line class="st12" x1="399.9" y1="432.1" x2="399.9" y2="427.7"/>
		<line class="st12" x1="180.7" y1="57.1" x2="180.7" y2="61.4"/>
		<line class="st12" x1="399.9" y1="57.1" x2="399.9" y2="61.4"/>
	</g>
	<g transform="translate(180.404,413.5)">
		<text transform="matrix(1 0 0 1 -22.7363 32.5732)" class="st13 st9 st14">Network 1</text>
	</g>
	<g transform="translate(399.5959,413.5)">
		<text transform="matrix(1 0 0 1 -22.7363 32.5732)" class="st13 st9 st14">Network 2</text>
	</g>
	<g>
		<line class="st12" x1="73.3" y1="432.1" x2="73.3" y2="57.1"/>
		<line class="st12" x1="507.3" y1="432.1" x2="507.3" y2="57.1"/>
		<line class="st12" x1="73.3" y1="432.1" x2="77.6" y2="432.1"/>
		<line class="st12" x1="73.3" y1="394.6" x2="77.6" y2="394.6"/>
		<line class="st12" x1="73.3" y1="357.1" x2="77.6" y2="357.1"/>
		<line class="st12" x1="73.3" y1="319.6" x2="77.6" y2="319.6"/>
		<line class="st12" x1="73.3" y1="282.1" x2="77.6" y2="282.1"/>
		<line class="st12" x1="73.3" y1="244.6" x2="77.6" y2="244.6"/>
		<line class="st12" x1="73.3" y1="207.1" x2="77.6" y2="207.1"/>
		<line class="st12" x1="73.3" y1="169.6" x2="77.6" y2="169.6"/>
		<line class="st12" x1="73.3" y1="132.1" x2="77.6" y2="132.1"/>
		<line class="st12" x1="73.3" y1="94.6" x2="77.6" y2="94.6"/>
		<line class="st12" x1="73.3" y1="57.1" x2="77.6" y2="57.1"/>
		<line class="st12" x1="507.3" y1="432.1" x2="502.9" y2="432.1"/>
		<line class="st12" x1="507.3" y1="394.6" x2="502.9" y2="394.6"/>
		<line class="st12" x1="507.3" y1="357.1" x2="502.9" y2="357.1"/>
		<line class="st12" x1="507.3" y1="319.6" x2="502.9" y2="319.6"/>
		<line class="st12" x1="507.3" y1="282.1" x2="502.9" y2="282.1"/>
		<line class="st12" x1="507.3" y1="244.6" x2="502.9" y2="244.6"/>
		<line class="st12" x1="507.3" y1="207.1" x2="502.9" y2="207.1"/>
		<line class="st12" x1="507.3" y1="169.6" x2="502.9" y2="169.6"/>
		<line class="st12" x1="507.3" y1="132.1" x2="502.9" y2="132.1"/>
		<line class="st12" x1="507.3" y1="94.6" x2="502.9" y2="94.6"/>
		<line class="st12" x1="507.3" y1="57.1" x2="502.9" y2="57.1"/>
	</g>
	<g transform="translate(69,409.5)">
		<text transform="matrix(1 0 0 1 -5.7363 26.0732)" class="st13 st9 st14">0</text>
	</g>
	<g transform="translate(69,372)">
		<text transform="matrix(1 0 0 1 -11.7363 26.0732)" class="st13 st9 st14">20</text>
	</g>
	<g transform="translate(69,334.5)">
		<text transform="matrix(1 0 0 1 -11.7363 26.0732)" class="st13 st9 st14">40</text>
	</g>
	<g transform="translate(69,297)">
		<text transform="matrix(1 0 0 1 -11.7363 26.0732)" class="st13 st9 st14">60</text>
	</g>
	<g transform="translate(69,259.5)">
		<text transform="matrix(1 0 0 1 -11.7363 26.0732)" class="st13 st9 st14">80</text>
	</g>
	<g transform="translate(69,222)">
		<text transform="matrix(1 0 0 1 -16.7363 26.0732)" class="st13 st9 st14">100</text>
	</g>
	<g transform="translate(69,184.5)">
		<text transform="matrix(1 0 0 1 -16.7363 26.0732)" class="st13 st9 st14">120</text>
	</g>
	<g transform="translate(69,147)">
		<text transform="matrix(1 0 0 1 -16.7363 26.0732)" class="st13 st9 st14">140</text>
	</g>
	<g transform="translate(69,109.5)">
		<text transform="matrix(1 0 0 1 -16.7363 26.0732)" class="st13 st9 st14">160</text>
	</g>
	<g transform="translate(69,72)">
		<text transform="matrix(1 0 0 1 -16.7363 26.0732)" class="st13 st9 st14">180</text>
	</g>
	<g transform="translate(69,34.5)">
		<text transform="matrix(1 0 0 1 -16.7363 26.0732)" class="st13 st9 st14">200</text>
	</g>
	<g transform="translate(49,221.9998) rotate(-90)">
		<text transform="matrix(1 0 0 1 -46.0734 -2.7363)" class="st13 st9 st1">Accuracy</text>
	</g>
	<g>
		<path class="st15" d="M489.8,104.3V77.8h-110v26.5H489.8z"/>
	</g>
	<g transform="translate(416.5,258)">
		<text transform="matrix(1 0 0 1 0.2637 -169.1865)" class="st9 st16">Hand Kinematics</text>
	</g>
	<g>
		<path class="st3" d="M413.8,89.4v-8.2h-30v8.2H413.8z"/>
	</g>
	<g>
		<path class="st4" d="M383.8,89.4v-8.2h30v8.2H383.8z"/>
	</g>
	<g transform="translate(416.5,269.5)">
		<text transform="matrix(1 0 0 1 0.2637 -169.1865)" class="st9 st16">Wrist Kinematics</text>
	</g>
	<g>
		<path class="st5" d="M413.8,100.9v-8.2h-30v8.2H413.8z"/>
	</g>
	<g>
		<path class="st4" d="M383.8,100.9v-8.2h30v8.2H383.8z"/>
		<path class="st17" d="M379.8,104.3V77.8h110v26.5H379.8z"/>
	</g>
	<g>
		<path class="st5" d="M222.1,432.1v-4.3h-31.9v4.3H222.1z"/>
	</g>
	<g>
		<path class="st3" d="M168.7,432.1v-4.7h-31.9v4.7H168.7z"/>
	</g>
</g>
</svg>
