<?xml version="1.0" encoding="utf-8"?>
<!-- Generator: Adobe Illustrator 27.9.0, SVG Export Plug-In . SVG Version: 6.00 Build 0)  -->
<svg version="1.1" id="Layer_1" xmlns="http://www.w3.org/2000/svg" xmlns:xlink="http://www.w3.org/1999/xlink" x="0px" y="0px"
	 viewBox="0 0 560 420" style="enable-background:new 0 0 560 420;" xml:space="preserve">
<style type="text/css">
	.st0{fill:none;stroke:#262626;stroke-width:0.5;stroke-linecap:square;stroke-linejoin:round;stroke-miterlimit:10;}
	.st1{fill:#262626;}
	.st2{font-family:'Helvetica';}
	.st3{font-size:10px;}
	.st4{font-size:11px;}
	.st5{font-family:'HelveticaNeue-Bold';}
	.st6{fill:none;stroke:#000000;stroke-width:0.5;stroke-linejoin:bevel;stroke-miterlimit:1;stroke-dasharray:10,6;}
	.st7{fill:none;stroke:#000000;stroke-width:0.5;stroke-linejoin:round;stroke-miterlimit:10;}
	.st8{fill:none;stroke:#0000FF;stroke-width:0.5;stroke-linejoin:round;stroke-miterlimit:10;}
	.st9{fill:none;stroke:#FF0000;stroke-width:0.5;stroke-linejoin:round;stroke-miterlimit:10;}
	.st10{fill:none;stroke:#FF0000;stroke-width:0.5;stroke-miterlimit:10;}
	.st11{fill:none;stroke:#000000;stroke-linejoin:round;stroke-miterlimit:10;}
	.st12{fill:#FF0000;}
	.st13{font-size:20px;}
	.st14{fill:#FFFFFF;}
	.st15{font-size:9px;}
	.st16{fill:none;stroke:#262626;stroke-width:0.5;stroke-miterlimit:10;}
</style>
<g>
	<g>
		<line class="st0" x1="48" y1="376" x2="333" y2="376"/>
		<line class="st0" x1="48" y1="21" x2="333" y2="21"/>
		<line class="st0" x1="71.8" y1="376" x2="71.8" y2="372.5"/>
		<line class="st0" x1="119.2" y1="376" x2="119.2" y2="372.5"/>
		<line class="st0" x1="166.8" y1="376" x2="166.8" y2="372.5"/>
		<line class="st0" x1="214.2" y1="376" x2="214.2" y2="372.5"/>
		<line class="st0" x1="261.8" y1="376" x2="261.8" y2="372.5"/>
		<line class="st0" x1="309.2" y1="376" x2="309.2" y2="372.5"/>
		<line class="st0" x1="71.8" y1="21" x2="71.8" y2="24.6"/>
		<line class="st0" x1="119.2" y1="21" x2="119.2" y2="24.6"/>
		<line class="st0" x1="166.8" y1="21" x2="166.8" y2="24.6"/>
		<line class="st0" x1="214.2" y1="21" x2="214.2" y2="24.6"/>
		<line class="st0" x1="261.8" y1="21" x2="261.8" y2="24.6"/>
		<line class="st0" x1="309.2" y1="21" x2="309.2" y2="24.6"/>
	</g>
	<g transform="translate(71.75,372) rotate(-30)">
		<text transform="matrix(1 0 0 1 -50.0002 16.9283)" class="st1 st2 st3">Channel 1</text>
	</g>
	<g transform="translate(119.25,372) rotate(-30)">
		<text transform="matrix(1 0 0 1 -50.0002 16.9283)" class="st1 st2 st3">Channel 2</text>
	</g>
	<g transform="translate(166.75,372) rotate(-30)">
		<text transform="matrix(1 0 0 1 -50.0002 16.9283)" class="st1 st2 st3">Channel 3</text>
	</g>
	<g transform="translate(214.25,372) rotate(-30)">
		<text transform="matrix(1 0 0 1 -50.0002 16.9283)" class="st1 st2 st3">Channel 4</text>
	</g>
	<g transform="translate(261.75,372) rotate(-30)">
		<text transform="matrix(1 0 0 1 -50.0002 16.9283)" class="st1 st2 st3">Channel 5</text>
	</g>
	<g transform="translate(309.25,372) rotate(-30)">
		<text transform="matrix(1 0 0 1 -50.0002 16.9283)" class="st1 st2 st3">Channel 6</text>
	</g>
	<g>
		<line class="st0" x1="48" y1="376" x2="48" y2="21"/>
		<line class="st0" x1="333" y1="376" x2="333" y2="21"/>
		<line class="st0" x1="48" y1="367.7" x2="51.4" y2="367.7"/>
		<line class="st0" x1="48" y1="326.5" x2="51.4" y2="326.5"/>
		<line class="st0" x1="48" y1="285.2" x2="51.4" y2="285.2"/>
		<line class="st0" x1="48" y1="243.9" x2="51.4" y2="243.9"/>
		<line class="st0" x1="48" y1="202.6" x2="51.4" y2="202.6"/>
		<line class="st0" x1="48" y1="161.4" x2="51.4" y2="161.4"/>
		<line class="st0" x1="48" y1="120.1" x2="51.4" y2="120.1"/>
		<line class="st0" x1="48" y1="78.8" x2="51.4" y2="78.8"/>
		<line class="st0" x1="48" y1="37.5" x2="51.4" y2="37.5"/>
		<line class="st0" x1="333" y1="367.7" x2="329.6" y2="367.7"/>
		<line class="st0" x1="333" y1="326.5" x2="329.6" y2="326.5"/>
		<line class="st0" x1="333" y1="285.2" x2="329.6" y2="285.2"/>
		<line class="st0" x1="333" y1="243.9" x2="329.6" y2="243.9"/>
		<line class="st0" x1="333" y1="202.6" x2="329.6" y2="202.6"/>
		<line class="st0" x1="333" y1="161.4" x2="329.6" y2="161.4"/>
		<line class="st0" x1="333" y1="120.1" x2="329.6" y2="120.1"/>
		<line class="st0" x1="333" y1="78.8" x2="329.6" y2="78.8"/>
		<line class="st0" x1="333" y1="37.5" x2="329.6" y2="37.5"/>
	</g>
	<g transform="translate(44,360.1744)">
		<text transform="matrix(1 0 0 1 -18 11.5)" class="st1 st2 st3">-0.5</text>
	</g>
	<g transform="translate(44,321.0465)">
		<text transform="matrix(1 0 0 1 -6 11.5)" class="st1 st2 st3">0</text>
	</g>
	<g transform="translate(44,281.9186)">
		<text transform="matrix(1 0 0 1 -14 11.5)" class="st1 st2 st3">0.5</text>
	</g>
	<g transform="translate(44,242.7907)">
		<text transform="matrix(1 0 0 1 -6 11.5)" class="st1 st2 st3">1</text>
	</g>
	<g transform="translate(44,203.6628)">
		<text transform="matrix(1 0 0 1 -14 11.5)" class="st1 st2 st3">1.5</text>
	</g>
	<g transform="translate(44,164.5349)">
		<text transform="matrix(1 0 0 1 -6 11.5)" class="st1 st2 st3">2</text>
	</g>
	<g transform="translate(44,125.407)">
		<text transform="matrix(1 0 0 1 -14 11.5)" class="st1 st2 st3">2.5</text>
	</g>
	<g transform="translate(44,86.2791)">
		<text transform="matrix(1 0 0 1 -6 11.5)" class="st1 st2 st3">3</text>
	</g>
	<g transform="translate(44,47.1512)">
		<text transform="matrix(1 0 0 1 -14 11.5)" class="st1 st2 st3">3.5</text>
	</g>
	<g transform="translate(23,199.7498) rotate(-90)">
		<text transform="matrix(1 0 0 1 -37.5002 -3)" class="st1 st2 st4">SNR Values</text>
	</g>
	<g transform="translate(190.5002,30.127)">
		<text transform="matrix(1 0 0 1 -82.8617 -14.9185)" class="st5 st4">SNR Boxplots for Each Channel</text>
	</g>
	<g>
		<line class="st6" x1="71.8" y1="241.8" x2="71.8" y2="141.1"/>
		<line class="st6" x1="119.2" y1="269" x2="119.2" y2="223.2"/>
		<line class="st6" x1="166.8" y1="329" x2="166.8" y2="329"/>
		<line class="st6" x1="214.2" y1="329" x2="214.2" y2="329"/>
		<line class="st6" x1="261.8" y1="286.1" x2="261.8" y2="224"/>
		<line class="st6" x1="309.2" y1="210" x2="309.2" y2="80.6"/>
		<line class="st6" x1="71.8" y1="356.7" x2="71.8" y2="315.2"/>
		<line class="st6" x1="119.2" y1="329" x2="119.2" y2="306.7"/>
		<line class="st6" x1="166.8" y1="329" x2="166.8" y2="329"/>
		<line class="st6" x1="214.2" y1="329" x2="214.2" y2="329"/>
		<line class="st6" x1="261.8" y1="334.4" x2="261.8" y2="329"/>
		<line class="st6" x1="309.2" y1="353.2" x2="309.2" y2="329"/>
		<line class="st7" x1="65.8" y1="141.1" x2="77.7" y2="141.1"/>
		<line class="st7" x1="113.3" y1="223.2" x2="125.2" y2="223.2"/>
		<line class="st7" x1="160.8" y1="329" x2="172.7" y2="329"/>
		<line class="st7" x1="208.3" y1="329" x2="220.2" y2="329"/>
		<line class="st7" x1="255.8" y1="224" x2="267.7" y2="224"/>
		<line class="st7" x1="303.3" y1="80.6" x2="315.2" y2="80.6"/>
		<line class="st7" x1="65.8" y1="356.7" x2="77.7" y2="356.7"/>
		<line class="st7" x1="113.3" y1="329" x2="125.2" y2="329"/>
		<line class="st7" x1="160.8" y1="329" x2="172.7" y2="329"/>
		<line class="st7" x1="208.3" y1="329" x2="220.2" y2="329"/>
		<line class="st7" x1="255.8" y1="334.4" x2="267.7" y2="334.4"/>
		<line class="st7" x1="303.3" y1="353.2" x2="315.2" y2="353.2"/>
	</g>
	<g>
		<path class="st8" d="M59.9,317.8v-69.5h23.8v69.5H59.9"/>
		<path class="st8" d="M107.4,309.8v-35.7h23.8v35.7H107.4"/>
		<path class="st8" d="M154.9,331L154.9,331h23.8l0,0H154.9"/>
		<path class="st8" d="M202.4,331L202.4,331h23.8l0,0H202.4"/>
		<path class="st8" d="M249.9,331v-40.7h23.8V331H249.9"/>
		<path class="st8" d="M297.4,331V218.2h23.8V331H297.4"/>
		<line class="st9" x1="59.9" y1="284.4" x2="83.6" y2="284.4"/>
		<line class="st9" x1="107.4" y1="293.1" x2="131.1" y2="293.1"/>
		<line class="st9" x1="154.9" y1="331" x2="178.6" y2="331"/>
		<line class="st9" x1="202.4" y1="331" x2="226.1" y2="331"/>
		<line class="st9" x1="249.9" y1="331" x2="273.6" y2="331"/>
		<line class="st9" x1="297.4" y1="273" x2="321.1" y2="273"/>
		<path class="st10" d="M71.8,127.1v5.7 M68.8,129.9h6"/>
		<path class="st10" d="M166.8,344.7v5.7 M163.8,347.6h6"/>
		<path class="st10" d="M166.8,305.2v5.7 M163.8,308.1h6"/>
		<path class="st10" d="M166.8,298.6v5.7 M163.8,301.4h6"/>
		<path class="st10" d="M166.8,296.2v5.7 M163.8,299h6"/>
		<path class="st10" d="M166.8,288.3v5.7 M163.8,291.1h6"/>
		<path class="st10" d="M166.8,286.7v5.7 M163.8,289.6h6"/>
		<path class="st10" d="M166.8,285.5v5.7 M163.8,288.3h6"/>
		<path class="st10" d="M166.8,278.5v5.7 M163.8,281.3h6"/>
		<path class="st10" d="M166.8,258.8v5.7 M163.8,261.6h6"/>
		<path class="st10" d="M166.8,255.4v5.7 M163.8,258.2h6"/>
		<path class="st10" d="M166.8,246.4v5.7 M163.8,249.2h6"/>
		<path class="st10" d="M166.8,242.1v5.7 M163.8,245h6"/>
		<path class="st10" d="M166.8,233.2v5.7 M163.8,236h6"/>
		<path class="st10" d="M166.8,212.1v5.7 M163.8,215h6"/>
		<path class="st10" d="M214.2,359.6v5.7 M211.2,362.4h6"/>
		<path class="st10" d="M214.2,316.1v5.7 M211.2,318.9h6"/>
		<path class="st10" d="M214.2,315.1v5.7 M211.2,318h6"/>
		<path class="st10" d="M214.2,302.4v5.7 M211.2,305.2h6"/>
		<path class="st10" d="M214.2,291.7v5.7 M211.2,294.5h6"/>
		<path class="st10" d="M214.2,279.7v5.7 M211.2,282.5h6"/>
		<path class="st10" d="M214.2,278.2v5.7 M211.2,281h6"/>
		<path class="st10" d="M214.2,275.7v5.7 M211.2,278.6h6"/>
		<path class="st10" d="M214.2,272v5.7 M211.2,274.8h6"/>
		<path class="st10" d="M214.2,267.8v5.7 M211.2,270.7h6"/>
		<path class="st10" d="M214.2,263.5v5.7 M211.2,266.3h6"/>
		<path class="st10" d="M214.2,258.2v5.7 M211.2,261.1h6"/>
		<path class="st10" d="M214.2,258v5.7 M211.2,260.8h6"/>
		<path class="st10" d="M214.2,254.7v5.7 M211.2,257.6h6"/>
		<path class="st10" d="M214.2,241.5v5.7 M211.2,244.4h6"/>
		<path class="st10" d="M261.8,176v5.7 M258.8,178.9h6"/>
		<path class="st10" d="M261.8,164.5v5.7 M258.8,167.3h6"/>
		<path class="st10" d="M261.8,149.1v5.7 M258.8,151.9h6"/>
		<path class="st10" d="M261.8,136.1v5.7 M258.8,139h6"/>
		<line class="st11" x1="71.8" y1="83.8" x2="166.8" y2="83.8"/>
	</g>
	<g transform="translate(119.25,60.1668)">
		<text transform="matrix(1 0 0 1 106.875 16.833)" class="st12 st2 st13">*</text>
	</g>
	<g>
		<line class="st11" x1="69.2" y1="103.3" x2="211.7" y2="103.3"/>
	</g>
	<g transform="translate(143,60.1668)">
		<text transform="matrix(1 0 0 1 106.875 5.3333)" class="st12 st2 st13">*</text>
	</g>
	<g>
		<line class="st11" x1="69.2" y1="118.3" x2="259.2" y2="118.3"/>
	</g>
	<g transform="translate(166.75,60.1668)">
		<text transform="matrix(1 0 0 1 -58.8478 28.3333)" class="st12 st2 st13">*</text>
	</g>
	<g>
		<line class="st11" x1="116.7" y1="188.1" x2="164.2" y2="188.1"/>
	</g>
	<g>
		<line class="st11" x1="122.9" y1="165.5" x2="217.9" y2="165.5"/>
	</g>
	<g>
		<line class="st11" x1="122.9" y1="70.4" x2="312.9" y2="70.4"/>
	</g>
	<g transform="translate(214.25,60.1668)">
		<text transform="matrix(1 0 0 1 -79.4 131.8922)" class="st12 st2 st13">*</text>
	</g>
	<g>
		<line class="st11" x1="166.8" y1="59.2" x2="309.2" y2="59.2"/>
	</g>
	<g transform="translate(238,60.1668)">
		<text transform="matrix(1 0 0 1 -77.1875 108.3528)" class="st12 st2 st13">*</text>
	</g>
	<g>
		<line class="st11" x1="214.2" y1="48.8" x2="309.2" y2="48.8"/>
	</g>
	<g transform="translate(261.75,60.1668)">
		<text transform="matrix(1 0 0 1 -136.5625 47.833)" class="st12 st2 st13">*</text>
	</g>
	<g>
		<line class="st11" x1="261.8" y1="35.6" x2="309.2" y2="35.6"/>
	</g>
	<g transform="translate(285.5,60.1668)">
		<text transform="matrix(1 0 0 1 -130.625 62.8333)" class="st12 st2 st13">*</text>
	</g>
	<g>
		<path class="st14" d="M525,138.5v-107H341v107H525z"/>
	</g>
	<g transform="translate(378,39)">
		<text transform="matrix(1 0 0 1 0 3.5)" class="st2 st15">Significant: Channel 1 vs Channel 3</text>
	</g>
	<g>
		<line class="st11" x1="345" y1="39" x2="375" y2="39"/>
	</g>
	<g transform="translate(378,50.5)">
		<text transform="matrix(1 0 0 1 0 3.5)" class="st2 st15">Significant: Channel 1 vs Channel 4</text>
	</g>
	<g>
		<line class="st11" x1="345" y1="50.5" x2="375" y2="50.5"/>
	</g>
	<g transform="translate(378,62)">
		<text transform="matrix(1 0 0 1 0 3.5)" class="st2 st15">Significant: Channel 1 vs Channel 5</text>
	</g>
	<g>
		<line class="st11" x1="345" y1="62" x2="375" y2="62"/>
	</g>
	<g transform="translate(378,73.5)">
		<text transform="matrix(1 0 0 1 0 3.5)" class="st2 st15">Significant: Channel 2 vs Channel 3</text>
	</g>
	<g>
		<line class="st11" x1="345" y1="73.5" x2="375" y2="73.5"/>
	</g>
	<g transform="translate(378,85)">
		<text transform="matrix(1 0 0 1 0 3.5)" class="st2 st15">Significant: Channel 2 vs Channel 4</text>
	</g>
	<g>
		<line class="st11" x1="345" y1="85" x2="375" y2="85"/>
	</g>
	<g transform="translate(378,96.5)">
		<text transform="matrix(1 0 0 1 0 3.5)" class="st2 st15">Significant: Channel 2 vs Channel 6</text>
	</g>
	<g>
		<line class="st11" x1="345" y1="96.5" x2="375" y2="96.5"/>
	</g>
	<g transform="translate(378,108)">
		<text transform="matrix(1 0 0 1 0 3.5)" class="st2 st15">Significant: Channel 3 vs Channel 6</text>
	</g>
	<g>
		<line class="st11" x1="345" y1="108" x2="375" y2="108"/>
	</g>
	<g transform="translate(378,119.5)">
		<text transform="matrix(1 0 0 1 0 3.5)" class="st2 st15">Significant: Channel 4 vs Channel 6</text>
	</g>
	<g>
		<line class="st11" x1="345" y1="119.5" x2="375" y2="119.5"/>
	</g>
	<g transform="translate(378,131)">
		<text transform="matrix(1 0 0 1 0 3.5)" class="st2 st15">Significant: Channel 5 vs Channel 6</text>
	</g>
	<g>
		<line class="st11" x1="345" y1="131" x2="375" y2="131"/>
	</g>
	<g>
		<path class="st16" d="M341,138.5v-107h184v107H341z"/>
	</g>
	<g transform="translate(285.5,60.1668)">
		<text transform="matrix(1 0 0 1 -22.8073 -6.1667)" class="st12 st2 st13">*</text>
	</g>
	<g transform="translate(285.5,60.1668)">
		<text transform="matrix(1 0 0 1 0 -17.7422)" class="st12 st2 st13">*</text>
	</g>
</g>
</svg>
